<?xml version="1.0" encoding="UTF-8"?><svg id="Vrstva_1" xmlns="http://www.w3.org/2000/svg" viewBox="0 0 260 150"><defs><style>.cls-1{fill:#333;}</style></defs><path class="cls-1" d="M152.42,62.54v-6.22h-6.69l-5.47,7.1c-2.27-.59-4.28-1.62-5.82-3.18l-2.77,1.03c1.77,1.71,4.44,2.86,7.55,3.5l-10.53,13.66h-.16l-17.18-21.87,19.44-24.7v23.99h5.71v-6.59c3.01,1.21,7.15,1.98,11.35,2.94,6.2,1.33,8.05,3.7,8.05,5.97,0,1.76-1.26,3.3-3.48,4.37m2.2,1.56c4.06-1.3,7.08-3.58,7.48-6.78,0-4.51-5.28-6.32-10.48-7.39-7.55-1.5-12.91-2.75-13.75-6.02-.15-.46-.17-.69-.17-1.03,.17-3.52,5.12-5.71,9.64-5.71s7.54,.6,10.47,3.35l2.52-.82c-3.27-2.92-7.71-3.7-12.99-3.7-4.39,0-8.14,.74-10.85,2.06v-9.29h-6.69l-17.04,22.11h-.16l-17.37-22.11h-6.52v27.09h3.18v-23.66l19.09,24.12h-5.88v27.09h2.69v-23.66l19.32,24.41h.08l19.49-24.75v23.99h5.71v-18.01h10.09v25.26h5.87v-25.26h12.15v-1.3h-25.9Zm-4.5-29.82l9.27-5.51h-2.93l-8.52,3.84-8.67-3.84h-2.76l9.34,5.51h4.28Z"/><polygon class="cls-1" points="39.81 97.47 41.17 97.47 44.78 105.23 48.45 97.47 49.7 97.47 49.7 106.02 48.86 106.02 48.89 98.21 45.27 106.02 44.29 106.02 40.57 98.21 40.65 106.02 39.81 106.02 39.81 97.47"/><rect class="cls-1" x="52.97" y="97.47" width=".85" height="8.55"/><polygon class="cls-1" points="57.08 97.47 58.17 97.47 64.15 105.15 64.15 97.47 64.98 97.47 64.98 106.02 63.84 106.02 57.91 98.35 57.91 106.02 57.08 106.02 57.08 97.47"/><rect class="cls-1" x="68.25" y="97.47" width=".85" height="8.55"/><path class="cls-1" d="M72.91,103.21v.05c0,1.29,1.06,2.16,2.71,2.16s2.65-.71,2.65-1.75c0-.97-.69-1.22-2.13-1.48l-1.82-.32c-1.36-.24-2.03-.95-2.03-2.13,0-1.47,1.21-2.47,3.26-2.47s3.32,.99,3.36,2.63h-.85c-.11-1.2-.96-1.85-2.49-1.85s-2.4,.66-2.4,1.65c0,.9,.7,1.21,2.13,1.45l1.62,.29c1.55,.27,2.25,.94,2.25,2.21,0,1.63-1.27,2.63-3.47,2.63s-3.66-1.14-3.66-2.91v-.13h.87Z"/><polygon class="cls-1" points="84.38 98.25 81.08 98.25 81.08 97.47 88.54 97.47 88.54 98.25 85.24 98.25 85.24 106.02 84.38 106.02 84.38 98.25"/><polygon class="cls-1" points="90.76 97.47 97.33 97.47 97.33 98.27 91.61 98.27 91.61 101.27 96.89 101.27 96.89 102.07 91.61 102.07 91.61 105.22 97.33 105.22 97.33 106.02 90.76 106.02 90.76 97.47"/><g><path class="cls-1" d="M100.93,98.27v3.28h3.15c1.58,0,2.3-.44,2.3-1.65,0-1.27-.76-1.64-2.41-1.64h-3.04Zm-.85-.8h4.1c2.04,0,3.07,.77,3.07,2.3,0,1.12-.45,1.79-1.48,2.13,.97,.15,1.2,.6,1.32,1.62,.13,1.14,.06,2,.41,2.5h-1c-.26-.78-.19-1.63-.3-2.5-.11-.88-.6-1.17-1.67-1.17h-3.6v3.67h-.85v-8.55Z"/><path class="cls-1" d="M110.78,103.21v.05c0,1.29,1.05,2.16,2.71,2.16s2.65-.71,2.65-1.75c0-.97-.69-1.22-2.13-1.48l-1.82-.32c-1.36-.24-2.03-.95-2.03-2.13,0-1.47,1.21-2.47,3.26-2.47s3.32,.99,3.36,2.63h-.85c-.11-1.2-.96-1.85-2.49-1.85s-2.4,.66-2.4,1.65c0,.9,.7,1.21,2.13,1.45l1.62,.29c1.55,.27,2.25,.94,2.25,2.21,0,1.63-1.27,2.63-3.47,2.63s-3.66-1.14-3.66-2.91v-.13h.86Z"/></g><polygon class="cls-1" points="122.25 98.25 118.95 98.25 118.95 97.47 126.41 97.47 126.41 98.25 123.11 98.25 123.11 106.02 122.25 106.02 122.25 98.25"/><polygon class="cls-1" points="127.68 97.47 128.62 97.47 132.05 105.29 135.49 97.47 136.42 97.47 132.58 106.02 131.51 106.02 127.68 97.47"/><g><path class="cls-1" d="M146.15,101.75c0-2.3-1.36-3.67-3.62-3.67s-3.63,1.38-3.63,3.67,1.36,3.67,3.63,3.67,3.62-1.37,3.62-3.67m-3.62,4.5c-2.81,0-4.49-1.72-4.49-4.5s1.68-4.5,4.49-4.5,4.5,1.72,4.5,4.5-1.69,4.5-4.5,4.5"/><path class="cls-1" d="M159.25,94.85h.91l-1.65,1.75h-.97l-1.65-1.75h.91l1.22,1.27,1.22-1.27Zm-3.87,8.35v.05c0,1.29,1.05,2.16,2.71,2.16s2.65-.71,2.65-1.75c0-.97-.69-1.22-2.13-1.48l-1.82-.32c-1.36-.24-2.02-.95-2.02-2.13,0-1.47,1.21-2.47,3.26-2.47s3.32,.99,3.36,2.63h-.85c-.11-1.2-.96-1.85-2.49-1.85s-2.4,.66-2.4,1.65c0,.9,.7,1.21,2.13,1.45l1.62,.29c1.55,.27,2.25,.94,2.25,2.21,0,1.63-1.27,2.63-3.47,2.63s-3.66-1.14-3.66-2.91v-.13h.86Z"/></g><polygon class="cls-1" points="164.53 97.47 165.39 97.47 165.39 102.15 170.68 97.47 171.86 97.47 167.84 101.05 171.86 106.02 170.77 106.02 167.2 101.61 165.39 103.19 165.39 106.02 164.53 106.02 164.53 97.47"/><path class="cls-1" d="M181.42,101.75c0-2.3-1.36-3.67-3.62-3.67s-3.62,1.38-3.62,3.67,1.36,3.67,3.62,3.67,3.62-1.37,3.62-3.67m-3.62,4.5c-2.81,0-4.49-1.72-4.49-4.5s1.68-4.5,4.49-4.5,4.5,1.72,4.5,4.5-1.69,4.5-4.5,4.5"/><polygon class="cls-1" points="185.08 97.47 185.94 97.47 185.94 105.22 191.32 105.22 191.32 106.02 185.08 106.02 185.08 97.47"/><path class="cls-1" d="M194.38,103.21v.05c0,1.29,1.06,2.16,2.71,2.16s2.65-.71,2.65-1.75c0-.97-.69-1.22-2.13-1.48l-1.82-.32c-1.36-.24-2.03-.95-2.03-2.13,0-1.47,1.21-2.47,3.26-2.47s3.32,.99,3.36,2.63h-.85c-.11-1.2-.96-1.85-2.49-1.85s-2.4,.66-2.4,1.65c0,.9,.7,1.21,2.13,1.45l1.62,.29c1.55,.27,2.25,.94,2.25,2.21,0,1.63-1.27,2.63-3.47,2.63s-3.66-1.14-3.66-2.91v-.13h.86Z"/><polygon class="cls-1" points="205.86 98.25 202.56 98.25 202.56 97.47 210.02 97.47 210.02 98.25 206.72 98.25 206.72 106.02 205.86 106.02 205.86 98.25"/><polygon class="cls-1" points="211.29 97.47 212.22 97.47 215.66 105.29 219.09 97.47 220.03 97.47 216.19 106.02 215.11 106.02 211.29 97.47"/><path class="cls-1" d="M223.45,94.85h1.08l-1.4,1.75h-.7l1.02-1.75Zm-1.11,2.62h.85v8.55h-.85v-8.55Z"/><path class="cls-1" d="M226.89,104.98h.96v1.39c0,.83-.21,1.26-.96,1.5v-.55c.32-.17,.43-.4,.43-.79v-.51h-.43v-1.04Z"/><polygon class="cls-1" points="54.29 110.75 55.42 110.75 58.42 117.2 61.45 110.75 62.5 110.75 62.5 117.86 61.8 117.86 61.83 111.37 58.82 117.86 58 117.86 54.91 111.37 54.98 117.86 54.29 117.86 54.29 110.75"/><polygon class="cls-1" points="64.96 110.75 65.67 110.75 65.67 117.19 70.14 117.19 70.14 117.86 64.96 117.86 64.96 110.75"/><path class="cls-1" d="M75.49,108.58h.9l-1.16,1.46h-.58l.85-1.46Zm1.08,6.39l-1.62-3.63-1.63,3.63h3.25Zm-2.03-4.22h.82l3.24,7.1h-.72l-.99-2.19h-3.88l-1,2.19h-.73l3.28-7.1Z"/><path class="cls-1" d="M81.02,111.4v5.78h1.88c1.02,0,1.75-.07,2.33-.45,.7-.46,.99-1.26,.99-2.47s-.31-1.97-.99-2.42c-.6-.39-1.39-.44-2.49-.44h-1.72Zm4.79,0c.79,.61,1.14,1.56,1.14,2.91s-.35,2.3-1.14,2.91c-.73,.56-1.64,.64-2.91,.64h-2.59v-7.1h2.59c1.27,0,2.18,.08,2.91,.64"/><polygon class="cls-1" points="89.06 110.75 94.52 110.75 94.52 111.41 89.77 111.41 89.77 113.9 94.16 113.9 94.16 114.57 89.77 114.57 89.77 117.19 94.52 117.19 94.52 117.86 89.06 117.86 89.06 110.75"/><path class="cls-1" d="M100.6,108.58h.76l-1.37,1.45h-.81l-1.37-1.45h.76l1.01,1.05,1.01-1.05Zm-4.51,8.58l5.22-5.74h-4.96v-.66h5.95v.66l-5.32,5.74h5.32v.7h-6.21v-.7Z"/><polygon class="cls-1" points="104.24 110.75 109.69 110.75 109.69 111.41 104.95 111.41 104.95 113.9 109.33 113.9 109.33 114.57 104.95 114.57 104.95 117.19 109.69 117.19 109.69 117.86 104.24 117.86 104.24 110.75"/><path class="cls-1" d="M120.29,114.97l-1.62-3.63-1.63,3.63h3.25Zm-2.03-4.22h.82l3.24,7.1h-.72l-.99-2.19h-3.89l-1,2.19h-.73l3.28-7.1Z"/><polygon class="cls-1" points="129.93 111.4 127.19 111.4 127.19 110.75 133.38 110.75 133.38 111.4 130.64 111.4 130.64 117.86 129.93 117.86 129.93 111.4"/><path class="cls-1" d="M138.82,108.58h.76l-1.37,1.46h-.81l-1.37-1.46h.76l1.01,1.05,1.01-1.05Zm-3.8,2.17h5.46v.66h-4.75v2.49h4.38v.67h-4.38v2.61h4.75v.67h-5.46v-7.1Z"/><polygon class="cls-1" points="142.57 110.75 143.28 110.75 143.28 117.19 147.74 117.19 147.74 117.86 142.57 117.86 142.57 110.75"/><path class="cls-1" d="M155.3,114.31c0-1.91-1.13-3.05-3.01-3.05s-3.01,1.14-3.01,3.05,1.13,3.05,3.01,3.05,3.01-1.14,3.01-3.05m-3.01,3.74c-2.33,0-3.73-1.43-3.73-3.74s1.4-3.74,3.73-3.74,3.74,1.43,3.74,3.74-1.41,3.74-3.74,3.74"/><polygon class="cls-1" points="157.17 110.75 157.94 110.75 160.8 117.24 163.65 110.75 164.43 110.75 161.24 117.86 160.34 117.86 157.17 110.75"/><path class="cls-1" d="M169.47,108.58h.89l-1.16,1.46h-.58l.85-1.46Zm-1.03,6.21l-3.06-4.03h.9l2.51,3.46,2.54-3.46h.88l-3.06,4.03v3.07h-.71v-3.07Z"/><path class="cls-1" d="M177.33,111.26c-1.86,0-3,1.15-3,3.05s1.14,3.04,2.86,3.04c1.43,0,2.52-.83,2.8-2.15h.76c-.33,1.75-1.68,2.85-3.54,2.85-2.18,0-3.6-1.45-3.6-3.74s1.4-3.74,3.73-3.74c1.85,0,3.07,.95,3.29,2.51h-.72c-.28-1.16-1.2-1.82-2.59-1.82"/><polygon class="cls-1" points="182.7 110.75 183.41 110.75 183.41 113.72 188.03 113.72 188.03 110.75 188.74 110.75 188.74 117.86 188.03 117.86 188.03 114.39 183.41 114.39 183.41 117.86 182.7 117.86 182.7 110.75"/><path class="cls-1" d="M197.6,114.31c0-1.91-1.13-3.05-3.01-3.05s-3.01,1.14-3.01,3.05,1.13,3.05,3.01,3.05,3.01-1.14,3.01-3.05m-3.01,3.74c-2.33,0-3.73-1.43-3.73-3.74s1.4-3.74,3.73-3.74,3.74,1.43,3.74,3.74-1.41,3.74-3.74,3.74"/><polygon class="cls-1" points="199.47 110.75 200.25 110.75 203.1 117.24 205.95 110.75 206.73 110.75 203.54 117.86 202.65 117.86 199.47 110.75"/><polygon class="cls-1" points="210.74 114.79 207.68 110.75 208.58 110.75 211.09 114.22 213.63 110.75 214.51 110.75 211.45 114.79 211.45 117.86 210.74 117.86 210.74 114.79"/></svg>