<?xml version="1.0" encoding="UTF-8"?><svg id="Vrstva_1" xmlns="http://www.w3.org/2000/svg" viewBox="0 0 260 150"><defs><style>.cls-1,.cls-2{fill:#333;}.cls-2{fill-rule:evenodd;}</style></defs><rect class="cls-1" x="110.23" y="53.41" width="1.32" height="47.94"/><g><path class="cls-1" d="M124.92,53.5h3.53l2.62,8.35h.03l2.62-8.35h3.53v11.01h-2.11v-9.09h-.03l-2.97,9.09h-2.11l-2.97-9.09-.03,.03v9.06h-2.11v-11.01Z"/><path class="cls-1" d="M140.42,53.5h2.21v11.01h-2.21v-11.01Z"/><path class="cls-1" d="M145.67,53.5h2.71l4.2,8.24h.03v-8.24h2.11v11.01h-2.7l-4.21-8.24h-.03v8.24h-2.11v-11.01Z"/><path class="cls-1" d="M157.78,53.5h2.21v11.01h-2.21v-11.01Z"/><path class="cls-1" d="M169.06,55.52c-.69-.3-1.47-.47-2.24-.47s-1.74,.33-1.74,1.53c0,1.91,4.83,1.1,4.83,4.8,0,2.41-1.91,3.33-4.13,3.33-1.2,0-1.73-.16-2.82-.43l.21-1.99c.76,.41,1.62,.68,2.49,.68s1.96-.43,1.96-1.42c0-2.1-4.83-1.23-4.83-4.87,0-2.46,1.91-3.36,3.85-3.36,.95,0,1.83,.13,2.63,.39l-.21,1.81Z"/><path class="cls-1" d="M174.72,55.23h-3.15v-1.74h8.52v1.74h-3.15v9.28h-2.21v-9.28Z"/><path class="cls-1" d="M182.28,53.5h6.5v1.74h-4.29v2.71h3.93v1.74h-3.93v3.09h4.32v1.74h-6.53v-11.01Z"/><path class="cls-1" d="M191.65,53.5h2.38c2.37,0,5.19-.08,5.19,2.98,0,1.29-.87,2.37-2.27,2.56v.03c.6,.05,.95,.65,1.17,1.14l1.77,4.31h-2.46l-1.33-3.44c-.31-.82-.6-1.14-1.53-1.14h-.71v4.57h-2.21v-11.01Zm2.21,4.7h.73c1.09,0,2.34-.16,2.34-1.53s-1.23-1.44-2.34-1.44h-.73v2.97Z"/><path class="cls-1" d="M208.19,55.52c-.69-.3-1.47-.47-2.24-.47s-1.74,.33-1.74,1.53c0,1.91,4.83,1.1,4.83,4.8,0,2.41-1.91,3.33-4.13,3.33-1.2,0-1.73-.16-2.82-.43l.21-1.99c.76,.41,1.62,.68,2.49,.68s1.96-.43,1.96-1.42c0-2.1-4.83-1.23-4.83-4.87,0-2.46,1.91-3.36,3.85-3.36,.95,0,1.83,.13,2.63,.39l-.21,1.81Z"/><path class="cls-1" d="M213.84,55.23h-3.15v-1.74h8.52v1.74h-3.15v9.28h-2.21v-9.28Z"/><path class="cls-1" d="M220.29,53.5h2.37l2.82,8.65h.03l2.79-8.65h2.19l-3.71,11.01h-2.71l-3.79-11.01Z"/><path class="cls-1" d="M237.58,53.31c3.46,0,5.4,2.33,5.4,5.66s-1.91,5.73-5.4,5.73-5.4-2.35-5.4-5.73,1.89-5.66,5.4-5.66Zm0,9.65c2.26,0,3.09-2,3.09-3.99s-.9-3.93-3.09-3.93-3.09,1.99-3.09,3.93,.83,3.99,3.09,3.99Z"/></g><g><path class="cls-1" d="M124.73,71.91h2.79c2.4,0,4.59,.69,4.59,3.33s-1.88,3.5-4.24,3.5h-.93v4.18h-2.21v-11.01Zm2.21,5.1h.77c1.1,0,2.1-.36,2.1-1.64s-.96-1.72-2.1-1.72h-.77v3.36Z"/><path class="cls-1" d="M134.29,71.91h2.38c2.37,0,5.19-.08,5.19,2.98,0,1.29-.87,2.37-2.27,2.56v.03c.6,.05,.95,.65,1.17,1.14l1.77,4.31h-2.46l-1.33-3.44c-.31-.82-.6-1.14-1.53-1.14h-.71v4.57h-2.21v-11.01Zm2.21,4.7h.73c1.09,0,2.34-.16,2.34-1.53s-1.23-1.44-2.34-1.44h-.73v2.97Z"/><path class="cls-1" d="M149.77,71.73c3.46,0,5.39,2.33,5.39,5.66s-1.91,5.73-5.39,5.73-5.4-2.35-5.4-5.73,1.89-5.66,5.4-5.66Zm0,9.66c2.26,0,3.09-2,3.09-3.99s-.9-3.93-3.09-3.93-3.09,1.99-3.09,3.93,.84,3.99,3.09,3.99Z"/><path class="cls-1" d="M163.16,71.91h3.53l2.62,8.35h.03l2.62-8.35h3.54v11.01h-2.11v-9.09h-.03l-2.97,9.09h-2.11l-2.97-9.09-.03,.03v9.06h-2.11v-11.01Z"/><path class="cls-1" d="M178.66,71.91h2.21v11.01h-2.21v-11.01Zm1.39-2.37h2.26l-2.16,1.74h-1.41l1.31-1.74Z"/><path class="cls-1" d="M189.94,73.93c-.69-.3-1.47-.47-2.24-.47s-1.73,.33-1.73,1.53c0,1.91,4.83,1.1,4.83,4.8,0,2.41-1.91,3.33-4.13,3.33-1.2,0-1.74-.16-2.82-.43l.2-1.99c.76,.41,1.62,.68,2.49,.68s1.96-.43,1.96-1.42c0-2.1-4.83-1.23-4.83-4.87,0-2.46,1.91-3.36,3.85-3.36,.95,0,1.83,.13,2.63,.39l-.21,1.81Z"/><path class="cls-1" d="M195.6,73.65h-3.16v-1.74h8.52v1.74h-3.15v9.28h-2.21v-9.28Z"/><path class="cls-1" d="M203.05,71.91h2.71l4.2,8.24h.03v-8.24h2.11v11.01h-2.7l-4.21-8.24h-.03v8.24h-2.11v-11.01Z"/><path class="cls-1" d="M215.15,71.91h2.21v11.01h-2.21v-11.01Zm1.39-2.37h2.26l-2.16,1.74h-1.4l1.31-1.74Z"/></g><g><path class="cls-1" d="M124.73,90.33h2.38c2.37,0,5.19-.08,5.19,2.98,0,1.29-.87,2.37-2.27,2.56v.03c.6,.05,.95,.65,1.17,1.14l1.77,4.31h-2.46l-1.33-3.44c-.32-.82-.6-1.14-1.53-1.14h-.71v4.57h-2.21v-11.01Zm2.21,4.7h.73c1.09,0,2.34-.16,2.34-1.53s-1.23-1.43-2.34-1.43h-.73v2.96Z"/><path class="cls-1" d="M140.21,90.14c3.45,0,5.39,2.33,5.39,5.66s-1.91,5.73-5.39,5.73-5.4-2.35-5.4-5.73,1.89-5.66,5.4-5.66Zm0,9.65c2.26,0,3.09-2,3.09-3.99s-.9-3.93-3.09-3.93-3.09,1.99-3.09,3.93,.84,3.99,3.09,3.99Z"/><path class="cls-1" d="M147.71,99.54l5.17-7.48h-4.97v-1.74h7.32v1.8l-5.22,7.48h5.33v1.74h-7.64v-1.8Z"/><path class="cls-1" d="M156.87,90.33h2.37l2.82,8.65h.03l2.79-8.65h2.19l-3.71,11.01h-2.71l-3.79-11.01Z"/><path class="cls-1" d="M174.16,90.14c3.46,0,5.4,2.33,5.4,5.66s-1.91,5.73-5.4,5.73-5.39-2.35-5.39-5.73,1.89-5.66,5.39-5.66Zm0,9.65c2.26,0,3.09-2,3.09-3.99s-.9-3.93-3.09-3.93-3.09,1.99-3.09,3.93,.83,3.99,3.09,3.99Z"/><path class="cls-1" d="M181.44,99.42c.3,.11,.61,.19,1.06,.19,1.44,0,1.44-1.15,1.44-1.94v-7.34h2.21v8.39c0,1.17-.76,2.81-3.01,2.81-.6,0-1.07-.05-1.69-.21v-1.91Z"/><path class="cls-1" d="M202.49,101.18c-.8,.19-1.67,.35-2.51,.35-3.57,0-6.04-1.78-6.04-5.51s2.3-5.88,6.04-5.88c.72,0,1.69,.14,2.49,.46l-.16,1.86c-.84-.47-1.59-.58-2.38-.58-2.27,0-3.69,1.74-3.69,3.99s1.39,3.93,3.74,3.93c.87,0,1.89-.19,2.41-.46l.1,1.84Zm-3.77-11.48l-1.47-1.74h1.5l1.01,1.03,1.01-1.03h1.47l-1.47,1.74h-2.05Z"/><path class="cls-1" d="M204.72,90.33h2.38c2.37,0,5.19-.08,5.19,2.98,0,1.29-.87,2.37-2.27,2.56v.03c.6,.05,.95,.65,1.17,1.14l1.76,4.31h-2.46l-1.32-3.44c-.31-.82-.6-1.14-1.53-1.14h-.71v4.57h-2.21v-11.01Zm2.21,4.7h.72c1.09,0,2.34-.16,2.34-1.53s-1.23-1.43-2.34-1.43h-.72v2.96Z"/></g><path class="cls-2" d="M78.26,90.83c-3.93,.76-8.12,1.26-11.5,1.18-7.64-.18-23.45-1.36-22.04-10.65,.83-5.47,6.43-7.91,8.98-9.97-5.25,.09-10.53,1.11-15.89,2.32-2.55,.57-4.98,1.09-7.32,2.22-3.83,1.84-8.91,5.28-8.78,11.56,.32,15.16,33.26,12.3,41.31,10.85,5.52-1,12.85-2.71,18.58-5.24,4.76-2.1,8.89-4.28,11.12-6.33-2.9,.58-8.51,2.91-14.45,4.06Zm-43.03-12.86l.87-2.47,1.9,2.05,4.58-.71-3.41,1.95,1.96,2.03-4.01-.85-3.36,1.97,.93-2.47-4.04-.82,4.59-.68Zm2.18,13.04l-3.53-1-3.01,1.81,.87-2.41-3.55-.97,4.06-.49,.81-2.41,1.64,2.1,4.06-.52-3.05,1.79,1.69,2.09Zm8.92,3.2l1.37,1.91-2.98-1.12-2.65,1.32,.84-1.99-3.01-1.1,3.5-.11,.79-2,1.32,1.92,3.5-.14-2.68,1.3Z"/><path class="cls-2" d="M53.7,59.39c-17.82,3.91-29.91,13.69-34.58,18.6,2.27-.6,6.11-2.08,9.41-3.49,2.71-1.16,5.51-1.89,8.51-2.61,5.72-1.38,11.87-2.21,17.48-2.3,8.85-.15,16.68,1.37,20.43,7.03,2.9-1.4,6.09-3.18,8.67-5.09-.03-.03-.03-.03-.08-.08-.31-.29-.68-.62-1-.84-2.06-1.47-4.52-2.69-6.61-3.45l1.72-2.28c3,.93,6.16,2.53,8.43,4.38,.07,.05,.08,.06,.14,.1,1.26-1.24,2.16-2.49,2.46-3.69,2.47-9.98-21.59-9.19-34.97-6.26Zm-2.57,6.66c-1.76,.31-5.98,1.17-9.53,1.92-1.42,.3-2.15,.49-3.09,.72,2.39-1.17,9.58-3.56,13.63-4.31l-1,1.67Zm18.89-.43c-3.73-.6-8.59-.65-12.59-.28l1.29-2.08c5.18-.65,8.89-.51,12.95,.1l-1.64,2.26Z"/><path class="cls-2" d="M95.72,63.02c-1.41-2.98-5.74-6.66-8.82-7.17,3.09,3.7,6.87,9.34,.88,14.81-3.36,3.06-7.77,5.78-12.62,8.05-8.83,4.12-19.32,6.92-27.26,7.36,5.3,2.38,8.1,3.35,14.95,3.94,5.66,.48,13.7,.19,19.12-1.72,1.42-.5,2.86-1.16,4.59-2.03,1.41-.71,1.87-1.2,3.1-2.14,3.03-2.31,5.44-5.25,6.77-8.43,1.69-4.06,1.12-8.85-.69-12.67Zm-21.69,25.24c-1.44,.39-3.82,.17-4.97-1.41l-2.54,1.05-3.59-.57c2.09-.1,8.2-1.2,9.63-2l-5.08,.82c-.6-.15-1.31-.43-1.67-.98-1.27-1.76,3.63-2.61,5.62-1.59,1.47,.76,2.73,.91,3.64,.9-.31,.57-.15,.94,.11,1.58,.47,1.14-.33,1.97-1.16,2.19Zm11.96-5.98c-1.4,1.04-3.27,.55-4.31-.39l-2.36,1.72-2.15,.02c1.54-.54,5.97-2.75,6.94-3.67l-3.69,1.75c-.46,.02-1.38-.13-1.71-.47-1.15-1.06,2.4-2.8,4.01-2.46,1.18,.25,2.49,.18,3.17-.03-.17,.5,0,.75,.26,1.18,.48,.77,.41,1.92-.17,2.35Zm7.2-6.95c-.61,1.36-2.34,1.08-3.61,.61l-1.1,1.77-1.72,.46c.99-.72,3.52-3.28,3.87-4.17l-2.14,2.07c-.36,.11-1.17,.19-1.59,.01-1.41-.54,.63-2.58,2.07-2.66,1.06-.06,2.08-.39,2.53-.69,.1,.41,.3,.57,.76,.82,.72,.38,1.2,1.17,.92,1.79Z"/></svg>