<?xml version="1.0" encoding="UTF-8"?><svg id="Vrstva_1" xmlns="http://www.w3.org/2000/svg" viewBox="0 0 260 150"><defs><style>.cls-1{fill:#333;}</style></defs><g><path class="cls-1" d="M78.33,29.37V101.44h106.1V29.37H78.33Zm104.06,69.99H80.37V31.35h102.02V99.36Z"/><g><polygon class="cls-1" points="129.21 46.17 131.36 44.6 133.51 46.17 132.69 43.63 134.88 42.06 132.19 42.06 131.36 39.49 130.54 42.06 127.84 42.06 130.03 43.63 129.21 46.17"/><polygon class="cls-1" points="118.07 49.16 120.22 47.59 122.37 49.16 121.55 46.62 123.74 45.05 121.04 45.05 120.22 42.48 119.39 45.05 116.7 45.05 118.89 46.62 118.07 49.16"/><polygon class="cls-1" points="112.07 50.65 111.24 53.22 108.55 53.22 110.74 54.79 109.92 57.33 112.07 55.76 114.22 57.33 113.4 54.79 115.59 53.22 112.89 53.22 112.07 50.65"/><polygon class="cls-1" points="109.08 66.89 111.23 68.46 110.41 65.92 112.6 64.35 109.9 64.35 109.08 61.77 108.25 64.35 105.56 64.35 107.74 65.92 106.93 68.46 109.08 66.89"/><polygon class="cls-1" points="112.89 75.51 112.07 72.93 111.24 75.51 108.55 75.51 110.74 77.08 109.92 79.62 112.07 78.04 114.22 79.62 113.4 77.08 115.59 75.51 112.89 75.51"/><polygon class="cls-1" points="121.06 83.67 120.24 81.1 119.41 83.68 116.72 83.67 118.9 85.24 118.08 87.79 120.24 86.21 122.39 87.79 121.57 85.24 123.76 83.67 121.06 83.67"/><polygon class="cls-1" points="132.19 86.63 131.36 84.06 130.54 86.64 127.84 86.63 130.03 88.2 129.21 90.74 131.36 89.17 133.52 90.74 132.7 88.2 134.88 86.63 132.19 86.63"/><polygon class="cls-1" points="143.31 83.67 142.49 81.1 141.66 83.68 138.97 83.67 141.16 85.24 140.34 87.79 142.49 86.21 144.64 87.79 143.82 85.24 146.01 83.67 143.31 83.67"/><polygon class="cls-1" points="151.48 75.51 150.66 72.93 149.83 75.51 147.14 75.51 149.33 77.08 148.5 79.62 150.66 78.04 152.81 79.62 151.99 77.08 154.18 75.51 151.48 75.51"/><polygon class="cls-1" points="157.14 64.32 154.44 64.32 153.61 61.74 152.79 64.32 150.1 64.32 152.28 65.89 151.46 68.43 153.61 66.85 155.77 68.43 154.95 65.89 157.14 64.32"/><polygon class="cls-1" points="148.5 57.3 150.66 55.73 152.81 57.3 151.99 54.76 154.18 53.19 151.48 53.19 150.66 50.61 149.83 53.19 147.14 53.19 149.33 54.76 148.5 57.3"/><polygon class="cls-1" points="142.52 42.48 141.7 45.06 139 45.05 141.19 46.62 140.37 49.16 142.52 47.59 144.67 49.16 143.86 46.62 146.04 45.05 143.34 45.05 142.52 42.48"/></g></g><g><path class="cls-1" d="M78.33,122.47v-9.17h7.06v1.1h-5.79v2.84h5.2v1.1h-5.2v3.05h5.87v1.1h-7.14Z"/><path class="cls-1" d="M89.79,122.47l-3.42-9.17h1.38l2.35,6.5c.05,.12,.11,.27,.16,.43,.05,.16,.11,.32,.16,.47,.05,.15,.1,.29,.15,.4h.08c.04-.11,.08-.24,.13-.39,.05-.15,.11-.3,.16-.46,.05-.16,.11-.31,.16-.45l2.33-6.5h1.34l-3.44,9.17h-1.54Z"/><path class="cls-1" d="M96.05,122.47v-9.17h4.83c.62,0,1.14,.11,1.56,.34,.41,.23,.72,.54,.93,.95,.21,.41,.31,.87,.31,1.4,0,.63-.14,1.18-.43,1.63-.28,.46-.68,.78-1.18,.98l1.93,3.88h-1.39l-1.79-3.65h-3.49v3.65h-1.27Zm1.27-4.73h3.44c.51,0,.91-.16,1.2-.47,.29-.31,.43-.74,.43-1.28,0-.34-.06-.62-.19-.86s-.31-.41-.55-.54c-.24-.13-.54-.19-.9-.19h-3.44v3.34Z"/><path class="cls-1" d="M109.7,122.63c-.95,0-1.77-.17-2.45-.52s-1.21-.87-1.58-1.58c-.37-.7-.55-1.59-.55-2.65s.18-1.95,.55-2.65,.9-1.22,1.58-1.57,1.5-.52,2.45-.52,1.77,.17,2.45,.52,1.21,.87,1.58,1.57,.55,1.58,.55,2.65-.18,1.94-.55,2.65c-.37,.7-.9,1.23-1.58,1.58s-1.5,.52-2.45,.52Zm0-1.1c.5,0,.95-.07,1.36-.2,.41-.13,.75-.35,1.03-.64,.28-.29,.5-.66,.65-1.1,.15-.44,.23-.96,.23-1.57v-.28c0-.62-.08-1.14-.23-1.59-.15-.44-.37-.81-.65-1.1-.28-.29-.62-.5-1.03-.64-.41-.13-.86-.2-1.36-.2s-.96,.07-1.36,.2-.74,.35-1.03,.64-.5,.66-.65,1.1c-.15,.44-.22,.97-.22,1.59v.28c0,.61,.07,1.13,.22,1.57,.15,.44,.36,.81,.65,1.1s.63,.5,1.03,.64c.4,.13,.86,.2,1.36,.2Z"/><path class="cls-1" d="M116.12,122.47v-9.17h4.53c.63,0,1.16,.12,1.58,.35,.42,.24,.73,.56,.94,.98,.21,.42,.31,.91,.31,1.46s-.12,1.06-.35,1.49c-.23,.43-.56,.77-.98,1.01-.42,.24-.93,.36-1.52,.36h-3.25v3.52h-1.27Zm1.27-4.61h3.17c.5,0,.9-.16,1.2-.47,.3-.31,.45-.74,.45-1.28,0-.36-.06-.67-.19-.92-.13-.25-.31-.44-.55-.58-.24-.14-.54-.21-.91-.21h-3.17v3.46Z"/><path class="cls-1" d="M128.38,122.63c-.5,0-.98-.05-1.44-.15-.46-.1-.87-.26-1.22-.47-.36-.22-.64-.5-.85-.85-.21-.35-.31-.78-.31-1.28,0-.04,0-.09,0-.13s0-.09,0-.13h1.28s0,.07,0,.13c0,.06,0,.11,0,.15,0,.36,.11,.66,.32,.91,.21,.25,.51,.43,.89,.55s.81,.18,1.29,.18c.21,0,.44-.01,.67-.04,.24-.03,.46-.07,.68-.14s.41-.16,.59-.27c.17-.11,.31-.25,.41-.41,.1-.16,.15-.37,.15-.61,0-.3-.09-.55-.26-.76s-.4-.37-.69-.49c-.29-.13-.61-.25-.97-.35s-.73-.2-1.12-.3c-.38-.1-.76-.21-1.12-.34s-.68-.29-.97-.48-.51-.43-.69-.72c-.17-.28-.26-.63-.26-1.04,0-.38,.08-.73,.23-1.03,.16-.3,.39-.56,.7-.77,.31-.21,.69-.37,1.14-.48,.46-.11,.98-.17,1.56-.17,.48,0,.93,.05,1.34,.15,.41,.1,.78,.26,1.1,.47,.32,.21,.56,.47,.74,.79s.27,.71,.27,1.16v.16h-1.26v-.2c0-.3-.09-.56-.28-.78-.19-.21-.44-.38-.77-.49-.33-.12-.69-.17-1.1-.17-.53,0-.98,.05-1.34,.15s-.62,.25-.8,.44-.26,.41-.26,.65c0,.28,.09,.51,.26,.7s.4,.34,.69,.46c.28,.12,.61,.23,.98,.33,.37,.1,.74,.2,1.12,.3,.38,.1,.75,.22,1.11,.35s.69,.29,.98,.48c.29,.19,.52,.43,.69,.72s.25,.64,.25,1.06c0,.65-.16,1.18-.48,1.58-.32,.41-.76,.7-1.32,.89s-1.21,.28-1.95,.28Z"/><path class="cls-1" d="M134.01,122.47v-9.17h1.27v4.85l4.67-4.85h1.58l-3.49,3.66,3.61,5.51h-1.51l-2.98-4.6-1.87,1.77v2.83h-1.27Z"/><path class="cls-1" d="M141.14,122.47l3.62-9.17h1.67l3.64,9.17h-1.38l-.9-2.27h-4.47l-.88,2.27h-1.31Zm2.61-3.36h3.62l-1.11-2.87c-.03-.08-.07-.19-.12-.34-.05-.14-.11-.3-.17-.47s-.12-.35-.19-.53c-.06-.18-.12-.35-.17-.5h-.08c-.06,.18-.13,.38-.21,.62s-.16,.46-.24,.67c-.08,.22-.15,.4-.2,.56l-1.12,2.87Zm1.3-6.49l1.15-1.77h1.39v.04s-1.46,1.73-1.46,1.73h-1.08Z"/><path class="cls-1" d="M157.82,122.63c-.78,0-1.44-.12-2.01-.37-.56-.25-.99-.64-1.29-1.18s-.45-1.23-.45-2.08v-5.7h1.27v5.83c0,.8,.22,1.4,.65,1.8,.43,.4,1.04,.6,1.82,.6s1.41-.2,1.86-.6c.45-.4,.67-1,.67-1.8v-5.83h1.26v5.7c0,.85-.15,1.54-.45,2.08s-.74,.93-1.3,1.18c-.57,.25-1.24,.37-2.03,.37Z"/><path class="cls-1" d="M163.88,122.47v-9.17h1.23l4.45,6.04c.04,.05,.1,.13,.17,.24,.07,.11,.14,.21,.21,.31,.07,.1,.13,.19,.17,.27h.05v-6.87h1.24v9.17h-1.16l-4.51-6.15c-.06-.1-.15-.24-.27-.41-.12-.18-.22-.32-.3-.43h-.07v6.99h-1.23Z"/><path class="cls-1" d="M173.72,122.47v-9.17h1.27v9.17h-1.27Z"/><path class="cls-1" d="M177.29,122.47v-9.17h7.06v1.1h-5.79v2.84h5.2v1.1h-5.2v3.05h5.87v1.1h-7.14Z"/></g></svg>