<?xml version="1.0" encoding="UTF-8"?><svg id="Vrstva_1" xmlns="http://www.w3.org/2000/svg" viewBox="0 0 260 150"><defs><style>.cls-1{fill:#333;}</style></defs><path class="cls-1" d="M139.6,76.48c-.26-1.42-1.16-2.64-2.45-3.29l-3.99-2.02h0s-34.95,0-34.95,0v-17.43l-4.81-2c-1.22-.62-2.65-.66-3.91-.11l-46.05,22.27c-1.53,.67-2.58,2.11-2.74,3.78-.16,1.66,.6,3.28,1.97,4.22l45.73,30.4c9.25,6.55,14.27,6.55,20.83,0l29.23-31.9c.98-1.06,1.4-2.52,1.15-3.93h0Z"/><g><polygon class="cls-1" points="111.71 43.26 114.39 48.02 112.75 48.02 110.72 44.43 109.47 45.86 109.47 48.02 108.06 48.02 108.06 40.39 109.47 40.39 109.47 43.89 112.53 40.39 114.22 40.39 111.71 43.26 111.71 43.26"/><path class="cls-1" d="M117.89,41.62c.84,0,1.21,.01,1.51,.16,.59,.3,.6,.87,.6,1.03,0,1.11-1.03,1.17-1.34,1.18-.27,.01-.45,.02-.94,.02h-.5v-2.39h.66Zm-2.08,6.4h1.42v-2.83h1.28l1.51,2.83h1.63l-1.7-3.1c.43-.13,1.5-.64,1.5-2.1,0-.89-.37-1.49-.84-1.88-.67-.54-1.35-.54-2.37-.55h-2.43v7.63h0Z"/><path class="cls-1" d="M125.05,45.29l1.06-3.52,1.05,3.52h-2.11Zm2.93,2.74h1.52l-2.61-7.63h-1.62l-2.57,7.63h1.53l.44-1.49h2.86l.45,1.49h0Zm-2.08-9.25l-.8,1.16h1.11l1.55-1.16h-1.86Z"/><polygon class="cls-1" points="132.1 46.72 135.13 46.72 135.13 48.02 130.66 48.02 130.66 40.38 132.1 40.38 132.1 46.72 132.1 46.72"/><path class="cls-1" d="M141.28,44.37c-.03,1.84-1.25,2.53-2.21,2.53-1.26,0-2.22-1.03-2.22-2.75,0-1.59,.88-2.65,2.19-2.65,1.5,0,2.27,1.37,2.24,2.87h0Zm1.43-.16c.01-2.61-1.76-4.01-3.65-4.01-2.09,0-3.67,1.69-3.67,4.02,0,.96,.26,1.96,1.02,2.83,.78,.9,1.67,1.17,2.63,1.17,2.35,0,3.67-1.83,3.68-4.01h0Z"/><polygon class="cls-1" points="149.73 40.39 147.56 48.02 145.63 48.02 143.38 40.39 144.89 40.39 146.6 46.41 148.25 40.39 149.73 40.39 149.73 40.39"/><path class="cls-1" d="M152.78,41.66v1.79h3.68v1.23h-3.68v2.04h4.29v1.29h-5.7v-7.63h5.43v1.28h-4.02Zm3.29-2.89l-1.56,1.16h-1.1l.8-1.16h1.86Z"/><polygon class="cls-1" points="164.99 40.39 164.99 48.02 163.55 48.02 163.55 44.55 160.28 44.55 160.28 48.02 158.85 48.02 158.85 40.39 160.28 40.39 160.28 43.28 163.55 43.28 163.55 40.39 164.99 40.39 164.99 40.39"/><path class="cls-1" d="M169.13,41.62c.84,0,1.21,.01,1.51,.16,.6,.3,.61,.87,.61,1.03,0,1.11-1.03,1.17-1.34,1.18-.27,.01-.45,.02-.94,.02h-.5v-2.39h.66Zm-2.08,6.4h1.42v-2.83h1.28l1.51,2.83h1.63l-1.7-3.1c.43-.13,1.5-.64,1.5-2.1,0-.89-.37-1.49-.84-1.88-.67-.54-1.35-.54-2.37-.55h-2.43v7.63h0Z"/><path class="cls-1" d="M176.41,45.29l1.06-3.52,1.05,3.52h-2.11Zm2.93,2.74h1.52l-2.61-7.63h-1.62l-2.58,7.63h1.52l.44-1.49h2.87l.44,1.49h0Z"/><path class="cls-1" d="M184.44,41.69c.96,0,1.19,.02,1.6,.2,1.06,.51,1.17,1.68,1.17,2.39,0,1.59-.58,2.06-1.13,2.28-.32,.12-.7,.17-1.79,.17h-.6v-5.05h.76Zm-2.18,6.34h2.44c.9-.01,1.7-.02,2.46-.47,1.12-.65,1.57-1.98,1.57-3.29,0-.86-.2-2.39-1.47-3.29-.8-.57-1.6-.58-2.26-.59h-2.74v7.63h0Z"/><polygon class="cls-1" points="191.48 41.66 191.48 43.46 195.15 43.46 195.15 44.69 191.48 44.69 191.48 46.73 195.77 46.73 195.77 48.02 190.07 48.02 190.07 40.39 195.5 40.39 195.5 41.66 191.48 41.66 191.48 41.66"/><path class="cls-1" d="M203.58,45.89c-.1,.25-.28,.69-.66,1.15-.54,.63-1.4,1.18-2.64,1.18-2.02,0-3.57-1.48-3.57-4.03s1.68-3.99,3.62-3.99c2.38,0,2.94,1.83,3.12,2.36l-1.43,.38c-.02-.14-.09-.47-.28-.76-.16-.24-.58-.67-1.37-.67-1.24,0-2.11,1.03-2.11,2.66,0,1.74,.92,2.7,2.12,2.7,.71,0,1.15-.35,1.46-.75,.25-.34,.35-.62,.4-.79l1.34,.56h0Z"/><polygon class="cls-1" points="208.42 43.26 211.09 48.02 209.45 48.02 207.42 44.43 206.18 45.86 206.18 48.02 204.76 48.02 204.76 40.39 206.18 40.39 206.18 43.89 209.24 40.39 210.92 40.39 208.42 43.26 208.42 43.26"/><path class="cls-1" d="M215.68,45v3.02h-1.41v-3.02l-2.55-4.62h1.61l1.65,3.17,1.68-3.17h1.59l-2.57,4.62h0Zm1.13-6.23l-1.56,1.16h-1.1l.8-1.16h1.86Z"/><polygon class="cls-1" points="111.71 56.51 114.39 61.27 112.75 61.27 110.72 57.68 109.48 59.11 109.48 61.27 108.06 61.27 108.06 53.64 109.48 53.64 109.48 57.14 112.53 53.64 114.22 53.64 111.71 56.51 111.71 56.51"/><path class="cls-1" d="M117.67,54.87c.85,0,1.21,0,1.51,.16,.6,.3,.61,.86,.61,1.03,0,1.11-1.03,1.17-1.34,1.18-.27,.01-.45,.02-.94,.02h-.5v-2.39h.66Zm-2.08,6.4h1.42v-2.83h1.28l1.52,2.83h1.63l-1.7-3.1c.43-.13,1.5-.64,1.5-2.1,0-.89-.37-1.49-.84-1.88-.67-.54-1.35-.54-2.37-.55h-2.43v7.63h0Z"/><path class="cls-1" d="M124.73,58.54l1.06-3.51,1.05,3.51h-2.11Zm2.93,2.74h1.53l-2.61-7.63h-1.62l-2.57,7.63h1.53l.44-1.49h2.87l.44,1.49h0Z"/><path class="cls-1" d="M133.08,53.64v5.4c0,.61,0,1.09-.35,1.56-.46,.64-1.3,.84-2.1,.84-.44,0-.7-.07-.87-.1v-1.41c.21,.04,.45,.11,.76,.11,.42,0,.71-.13,.88-.3,.27-.27,.27-.59,.27-1.22v-4.88h1.42Z"/></g></svg>