<?xml version="1.0" encoding="UTF-8" standalone="no"?>
<!-- Created with Inkscape (http://www.inkscape.org/) -->

<svg
   version="1.1"
   id="svg1808"
   width="30.463135"
   height="35.000004"
   viewBox="0 0 30.463135 35.000004"
   sodipodi:docname="zs-police-prac5.pdf"
   xmlns:inkscape="http://www.inkscape.org/namespaces/inkscape"
   xmlns:sodipodi="http://sodipodi.sourceforge.net/DTD/sodipodi-0.dtd"
   xmlns="http://www.w3.org/2000/svg"
   xmlns:svg="http://www.w3.org/2000/svg">
  <defs
     id="defs1812">
    <clipPath
       clipPathUnits="userSpaceOnUse"
       id="clipPath1870">
      <path
         d="M 0,3029.778 H 1920 V 0 H 0 Z"
         id="path1868" />
    </clipPath>
  </defs>
  <sodipodi:namedview
     id="namedview1810"
     pagecolor="#505050"
     bordercolor="#eeeeee"
     borderopacity="1"
     inkscape:showpageshadow="0"
     inkscape:pageopacity="0"
     inkscape:pagecheckerboard="0"
     inkscape:deskcolor="#505050"
     showgrid="false" />
  <g
     id="g1816"
     inkscape:groupmode="layer"
     inkscape:label="Page 1"
     transform="matrix(1.3333333,0,0,-1.3333333,-2302.627,3990.1748)">
    <g
       id="g1864">
      <g
         id="g1866"
         clip-path="url(#clipPath1870)">
        <g
           id="g1886"
           transform="matrix(0.84994093,0,0,0.84994093,1733.7623,2976.8371)"
           inkscape:export-filename="../../../Public/html/81/hucr/zspolice.cz/themes/lzaplata-zspolice/assets/images/icons/bakalari.svg"
           inkscape:export-xdpi="96"
           inkscape:export-ydpi="96">
          <path
             d="M 0,0 5.449,-3.145 10.397,-0.289 8.499,0.81 C 8.344,0.898 8.249,1.063 8.249,1.242 v 3.807 c 0,0.179 0.095,0.344 0.25,0.432 L 10.398,6.58 5.449,9.438 0,6.291 Z m 5.449,-4.222 c -0.086,0 -0.173,0.023 -0.25,0.068 L -0.75,-0.722 C -0.904,-0.633 -1,-0.468 -1,-0.289 V 6.58 c 0,0.179 0.096,0.344 0.25,0.433 l 5.949,3.434 c 0.155,0.09 0.346,0.09 0.5,0 l 5.948,-3.434 c 0.155,-0.089 0.25,-0.254 0.25,-0.433 0,-0.179 -0.094,-0.344 -0.25,-0.433 L 9.249,4.761 V 1.53 l 2.398,-1.386 c 0.156,-0.089 0.25,-0.254 0.25,-0.433 0,-0.179 -0.095,-0.344 -0.25,-0.433 L 5.699,-4.154 C 5.622,-4.199 5.535,-4.222 5.449,-4.222 m -8.757,2.314 8.757,-5.056 8.756,5.056 0.004,3.231 -2.4,1.384 c -0.155,0.09 -0.25,0.255 -0.25,0.434 0,0.178 0.095,0.343 0.25,0.433 l 2.4,1.383 -0.004,3.244 -8.756,5.057 -8.757,-5.057 z m 8.757,-6.133 c -0.086,0 -0.173,0.022 -0.25,0.067 l -9.257,5.344 c -0.154,0.089 -0.25,0.254 -0.25,0.433 V 8.49 c 0,0.179 0.096,0.344 0.25,0.433 l 9.257,5.345 c 0.155,0.089 0.346,0.089 0.5,0 l 9.256,-5.345 c 0.154,-0.089 0.25,-0.254 0.25,-0.432 l 0.004,-3.822 c 0,-0.18 -0.096,-0.345 -0.25,-0.435 L 13.06,3.141 14.959,2.046 c 0.154,-0.09 0.25,-0.255 0.25,-0.435 l -0.004,-3.809 c 0,-0.178 -0.096,-0.343 -0.25,-0.432 L 5.699,-7.974 C 5.622,-8.019 5.535,-8.041 5.449,-8.041"
             style="fill:#ffffff;fill-opacity:1;fill-rule:nonzero;stroke:none"
             id="path1888" />
        </g>
        <path
           d="m 1738.8191,2985.3487 h -0.85 v 3.2468 h 0.85 z"
           style="fill:#ffffff;fill-opacity:1;fill-rule:nonzero;stroke:none;stroke-width:0.849941"
           id="path1890" />
        <g
           id="g1892"
           transform="matrix(0.84994093,0,0,0.84994093,1733.1249,2982.062)">
          <path
             d="m 0,0 -3.308,1.91 0.5,0.865 3.308,-1.91 z"
             style="fill:#ffffff;fill-opacity:1;fill-rule:nonzero;stroke:none"
             id="path1894" />
        </g>
        <g
           id="g1896"
           transform="matrix(0.84994093,0,0,0.84994093,1730.7386,2974.6018)">
          <path
             d="m 0,0 -0.5,0.865 3.308,1.908 0.5,-0.865 z"
             style="fill:#ffffff;fill-opacity:1;fill-rule:nonzero;stroke:none"
             id="path1898" />
        </g>
        <path
           d="m 1738.8191,2970.428 h -0.85 v 3.2459 h 0.85 z"
           style="fill:#ffffff;fill-opacity:1;fill-rule:nonzero;stroke:none;stroke-width:0.849941"
           id="path1900" />
        <g
           id="g1902"
           transform="matrix(0.84994093,0,0,0.84994093,1743.6612,2976.2228)">
          <path
             d="M 0,0 -0.498,0.867 2.813,2.769 3.312,1.901 Z"
             style="fill:#ffffff;fill-opacity:1;fill-rule:nonzero;stroke:none"
             id="path1904" />
        </g>
        <g
           id="g1906"
           transform="matrix(0.84994093,0,0,0.84994093,1743.799,2979.1379)">
          <path
             d="M 0,0 -3.31,1.908 -2.81,2.775 0.5,0.867 Z"
             style="fill:#ffffff;fill-opacity:1;fill-rule:nonzero;stroke:none"
             id="path1908" />
        </g>
        <g
           id="g1910"
           transform="matrix(0.84994093,0,0,0.84994093,1743.662,2982.062)">
          <path
             d="m 0,0 -0.5,0.865 3.308,1.91 0.5,-0.865 z"
             style="fill:#ffffff;fill-opacity:1;fill-rule:nonzero;stroke:none"
             id="path1912" />
        </g>
        <g
           id="g1914"
           transform="matrix(0.84994093,0,0,0.84994093,1727.8202,2973.4025)">
          <path
             d="M 0,0 12.44,-7.184 24.881,0 V 14.363 L 12.44,21.546 0,14.363 Z m 12.44,-8.261 c -0.086,0 -0.172,0.023 -0.25,0.068 L -0.75,-0.722 C -0.904,-0.633 -1,-0.468 -1,-0.289 v 14.941 c 0,0.179 0.096,0.344 0.25,0.433 l 12.94,7.471 c 0.155,0.09 0.346,0.09 0.5,0 l 12.941,-7.471 c 0.154,-0.089 0.25,-0.254 0.25,-0.433 V -0.289 c 0,-0.179 -0.096,-0.344 -0.25,-0.433 L 12.69,-8.193 c -0.077,-0.045 -0.164,-0.068 -0.25,-0.068"
             style="fill:#ffffff;fill-opacity:1;fill-rule:nonzero;stroke:none"
             id="path1916" />
        </g>
      </g>
    </g>
  </g>
</svg>
