<?xml version="1.0" encoding="UTF-8"?><svg id="Vrstva_1" xmlns="http://www.w3.org/2000/svg" viewBox="0 0 115.67 109.24"><defs><style>.cls-1{fill:#91e0a4;}.cls-2{fill:#ff776b;}</style></defs><g><rect class="cls-1" x="37.54" y="17.74" width="2" height="13.88"/><rect class="cls-1" x="85.36" y="17.74" width="2" height="13.88"/></g><path class="cls-1" d="M99.46,82.26H25.44V23.68H99.46v58.58Zm-72.02-2H97.46V25.68H27.44v54.58Z"/><polygon class="cls-1" points="90.24 91.5 16.21 91.5 16.21 32.92 26.46 32.92 26.46 34.92 18.21 34.92 18.21 89.5 88.24 89.5 88.24 81.26 90.24 81.26 90.24 91.5"/><rect class="cls-1" x="26.44" y="37.73" width="72.02" height="2"/><polygon class="cls-2" points="61.84 67.01 49.93 58.41 51.1 56.79 61.54 64.32 76.14 47.82 77.64 49.14 61.84 67.01"/></svg>