<?xml version="1.0" encoding="UTF-8"?><svg id="Vrstva_1" xmlns="http://www.w3.org/2000/svg" viewBox="0 0 115.67 109.24"><defs><style>.cls-1{fill:#91e0a4;}.cls-2{fill:#ff776b;}</style></defs><path class="cls-1" d="M51.5,93.34H19.84c-.55,0-1-.45-1-1v-31.67c0-.55,.45-1,1-1h31.67c.55,0,1,.45,1,1v31.67c0,.55-.45,1-1,1Zm-30.67-2h29.67v-29.67H20.84v29.67Z"/><path class="cls-1" d="M20.53,61.4l-1.38-1.45,13.16-12.6c.19-.18,.43-.28,.69-.28h2.67v2h-2.27l-12.87,12.32Z"/><path class="cls-1" d="M83.17,93.34h-31.67c-.55,0-1-.45-1-1v-31.67c0-.55,.45-1,1-1h31.67c.55,0,1,.45,1,1v31.67c0,.55-.45,1-1,1Zm-30.67-2h29.67v-29.67h-29.67v29.67Z"/><path class="cls-1" d="M83.88,61.38l-1.41-1.41,10.89-10.89h-13.46v-2h15.57c.24-.09,.51-.1,.75,0,.37,.15,.62,.52,.62,.92,0,.38-.21,.74-.51,.93l-12.45,12.45Z"/><path class="cls-1" d="M83.93,92.99l-1.53-1.29,12.32-14.54v-29.07h2v29.44c0,.24-.08,.47-.24,.65l-12.56,14.82Z"/><path class="cls-1" d="M67.34,61.67h-31.67c-.55,0-1-.45-1-1V29.01c0-.55,.45-1,1-1h31.67c.55,0,1,.45,1,1v31.67c0,.55-.45,1-1,1Zm-30.67-2h29.67V30.01h-29.67v29.67Z"/><path class="cls-1" d="M36.3,29.78l-1.26-1.55,14.86-12.03c.18-.14,.4-.22,.63-.22h29.1c.24-.1,.52-.1,.77,0,.37,.16,.61,.52,.61,.92s-.22,.76-.54,.95l-12.44,11.88-1.38-1.45,10.79-10.31h-26.55l-14.58,11.81Z"/><path class="cls-1" d="M68.04,61.38l-1.41-1.41,12.27-12.27V16.98h2v31.14c0,.27-.11,.52-.29,.71l-12.56,12.56Z"/><path class="cls-2" d="M56.85,52.67c-.41,0-.79-.25-.94-.66l-4.41-12.31-4.41,12.31c-.19,.52-.76,.79-1.28,.6-.52-.19-.79-.76-.6-1.28l5.35-14.94c.14-.4,.52-.66,.94-.66s.8,.27,.94,.66l5.35,14.94c.19,.52-.08,1.09-.6,1.28-.11,.04-.22,.06-.34,.06Z"/><rect class="cls-2" x="47.56" y="46.74" width="7.88" height="2"/><path class="cls-2" d="M34.68,85.4h-3.08c-.55,0-1-.45-1-1v-15.79c0-.55,.45-1,1-1h3.08c2.9,0,5.27,2.07,5.27,4.62,0,1.41-.73,2.68-1.87,3.53,1.6,.95,2.66,2.56,2.66,4.37,0,2.91-2.71,5.28-6.05,5.28Zm-2.08-2h2.08c2.23,0,4.05-1.47,4.05-3.28s-1.82-3.28-4.05-3.28l-2.08-.04v6.6Zm0-8.6l2.08,.04c1.8,0,3.26-1.18,3.26-2.62s-1.47-2.62-3.27-2.62h-2.08v5.2Z"/><path class="cls-2" d="M67.11,85.22c-2.89,0-5.24-2.36-5.24-5.26v-6.85c0-2.9,2.35-5.26,5.24-5.26,2.5,0,4.66,1.78,5.14,4.23,.11,.54-.25,1.07-.79,1.17-.54,.1-1.07-.25-1.17-.79-.3-1.52-1.64-2.62-3.18-2.62-1.79,0-3.24,1.46-3.24,3.26v6.85c0,1.8,1.46,3.26,3.24,3.26,1.42,0,2.7-.95,3.1-2.32,.16-.53,.71-.83,1.25-.67,.53,.16,.83,.72,.67,1.25-.66,2.2-2.73,3.74-5.02,3.74Z"/></svg>