<?xml version="1.0" encoding="UTF-8"?><svg id="Vrstva_1" xmlns="http://www.w3.org/2000/svg" viewBox="0 0 115.67 109.24"><defs><style>.cls-1{fill:#ff776b;}.cls-2{fill:#4177f0;}</style></defs><polygon class="cls-2" points="32.59 32.82 18.27 32.82 18.27 30.82 30.59 30.82 30.59 18.5 32.59 18.5 32.59 32.82"/><rect class="cls-2" x="26.15" y="57.79" width="35.66" height="2"/><rect class="cls-2" x="26.15" y="67.04" width="34.32" height="2"/><rect class="cls-2" x="26.15" y="76.29" width="38.24" height="2"/><rect class="cls-2" x="26.15" y="39.3" width="44.85" height="2"/><rect class="cls-2" x="26.15" y="48.55" width="44.2" height="2"/><rect class="cls-2" x="59.99" y="30.05" width="11.01" height="2"/><path class="cls-2" d="M78.88,85.52c-10.77,0-19.53-8.76-19.53-19.52s8.76-19.53,19.53-19.53,19.53,8.76,19.53,19.53-8.76,19.52-19.53,19.52Zm0-37.05c-9.66,0-17.53,7.86-17.53,17.53s7.86,17.52,17.53,17.52,17.53-7.86,17.53-17.52-7.86-17.53-17.53-17.53Z"/><g><rect class="cls-1" x="77.88" y="56.2" width="2" height="16.29"/><polygon class="cls-1" points="84.71 71.71 73.05 71.71 78.88 77.54 84.71 71.71"/></g><polygon class="cls-2" points="79.88 92 17.27 92 17.27 31.41 31.39 17.24 79.88 17.24 79.88 47.47 77.88 47.47 77.88 19.24 32.22 19.24 19.27 32.23 19.27 90 77.88 90 77.88 84.52 79.88 84.52 79.88 92"/></svg>