<?xml version="1.0" encoding="UTF-8" standalone="no"?>
<!-- Created with Inkscape (http://www.inkscape.org/) -->

<svg
   version="1.1"
   id="svg1808"
   width="35.130615"
   height="26.471996"
   viewBox="0 0 35.130615 26.471996"
   sodipodi:docname="zs-police-prac5.pdf"
   xmlns:inkscape="http://www.inkscape.org/namespaces/inkscape"
   xmlns:sodipodi="http://sodipodi.sourceforge.net/DTD/sodipodi-0.dtd"
   xmlns="http://www.w3.org/2000/svg"
   xmlns:svg="http://www.w3.org/2000/svg">
  <defs
     id="defs1812">
    <clipPath
       clipPathUnits="userSpaceOnUse"
       id="clipPath1870">
      <path
         d="M 0,3029.778 H 1920 V 0 H 0 Z"
         id="path1868" />
    </clipPath>
  </defs>
  <sodipodi:namedview
     id="namedview1810"
     pagecolor="#505050"
     bordercolor="#eeeeee"
     borderopacity="1"
     inkscape:showpageshadow="0"
     inkscape:pageopacity="0"
     inkscape:pagecheckerboard="0"
     inkscape:deskcolor="#505050"
     showgrid="false" />
  <g
     id="g1816"
     inkscape:groupmode="layer"
     inkscape:label="Page 1"
     transform="matrix(1.3333333,0,0,-1.3333333,-2433.6052,3982.8746)">
    <g
       id="g1864">
      <g
         id="g1866"
         clip-path="url(#clipPath1870)">
        <path
           d="m 1826.204,2968.302 h 24.349 v 17.854 h -24.349 z m 24.848,-1 h -25.348 c -0.277,0 -0.5,0.224 -0.5,0.5 v 18.854 c 0,0.276 0.223,0.5 0.5,0.5 h 25.348 c 0.277,0 0.5,-0.224 0.5,-0.5 v -18.854 c 0,-0.276 -0.223,-0.5 -0.5,-0.5"
           style="fill:#ffffff;fill-opacity:1;fill-rule:nonzero;stroke:none"
           id="path1872"
           inkscape:export-filename="../../../Public/html/81/hucr/zspolice.cz/themes/lzaplata-zspolice/assets/images/icons/envelope.svg"
           inkscape:export-xdpi="96"
           inkscape:export-ydpi="96" />
        <g
           id="g1874"
           transform="translate(1838.3787,2975.071)">
          <path
             d="m 0,0 c -0.117,0 -0.235,0.041 -0.329,0.124 l -12.675,11.085 0.658,0.752 L 0,1.164 12.345,11.961 13.003,11.209 0.329,0.124 C 0.235,0.041 0.117,0 0,0"
             style="fill:#ffffff;fill-opacity:1;fill-rule:nonzero;stroke:none"
             id="path1876" />
        </g>
        <g
           id="g1878"
           transform="translate(1850.7195,2967.4294)">
          <path
             d="M 0,0 -10.498,9.387 -9.832,10.133 0.666,0.746 Z"
             style="fill:#ffffff;fill-opacity:1;fill-rule:nonzero;stroke:none"
             id="path1880" />
        </g>
        <g
           id="g1882"
           transform="translate(1826.0369,2967.4294)">
          <path
             d="M 0,0 -0.666,0.746 9.833,10.133 10.499,9.387 Z"
             style="fill:#ffffff;fill-opacity:1;fill-rule:nonzero;stroke:none"
             id="path1884" />
        </g>
      </g>
    </g>
  </g>
</svg>
