<?xml version="1.0" encoding="UTF-8"?><svg id="Vrstva_1" xmlns="http://www.w3.org/2000/svg" viewBox="0 0 115.67 109.24"><defs><style>.cls-1{fill:#ff776b;}.cls-2{fill:#4177f0;}</style></defs><polygon class="cls-2" points="72.78 81.42 10.18 81.42 10.18 24.71 91.91 24.71 91.91 56.95 89.91 56.95 89.91 26.71 12.18 26.71 12.18 79.42 72.78 79.42 72.78 81.42"/><rect class="cls-2" x="11.18" y="40" width="79.73" height="2"/><g><rect class="cls-2" x="22.93" y="18.27" width="2" height="14.88"/><rect class="cls-2" x="77.16" y="18.27" width="2" height="14.88"/></g><g><rect class="cls-1" x="20.35" y="49.27" width="11.52" height="2"/><rect class="cls-1" x="36.97" y="49.27" width="11.52" height="2"/><rect class="cls-1" x="53.6" y="49.27" width="11.52" height="2"/><rect class="cls-1" x="70.23" y="49.27" width="11.52" height="2"/><rect class="cls-1" x="20.35" y="59.27" width="11.52" height="2"/><rect class="cls-1" x="36.97" y="59.27" width="11.52" height="2"/><rect class="cls-1" x="53.6" y="59.27" width="11.52" height="2"/><rect class="cls-1" x="20.35" y="69.26" width="11.52" height="2"/><rect class="cls-1" x="36.97" y="69.26" width="11.52" height="2"/><rect class="cls-1" x="53.6" y="69.26" width="11.52" height="2"/></g><path class="cls-2" d="M87.84,90.97c-9.73,0-17.65-7.92-17.65-17.65s7.92-17.65,17.65-17.65,17.65,7.92,17.65,17.65-7.92,17.65-17.65,17.65Zm0-33.31c-8.63,0-15.65,7.02-15.65,15.65s7.02,15.65,15.65,15.65,15.65-7.02,15.65-15.65-7.02-15.65-15.65-15.65Z"/><polygon class="cls-1" points="96.02 75.19 86.84 75.19 86.84 61.86 88.84 61.86 88.84 73.19 96.02 73.19 96.02 75.19"/></svg>