<?xml version="1.0" encoding="UTF-8"?><svg id="Vrstva_1" xmlns="http://www.w3.org/2000/svg" viewBox="0 0 115.67 109.24"><defs><style>.cls-1{fill:#91e0a4;}.cls-2{fill:#ff776b;}</style></defs><g><path class="cls-1" d="M30.54,34.99c-4.73,0-8.57-3.85-8.57-8.57s3.85-8.57,8.57-8.57,8.57,3.85,8.57,8.57-3.85,8.57-8.57,8.57Zm0-15.15c-3.62,0-6.57,2.95-6.57,6.57s2.95,6.57,6.57,6.57,6.57-2.95,6.57-6.57-2.95-6.57-6.57-6.57Z"/><path class="cls-1" d="M44.01,71.12H17.07v-18.54c0-7.43,6.04-13.47,13.47-13.47s13.47,6.04,13.47,13.47v18.54Zm-24.94-2h22.94v-16.54c0-6.33-5.15-11.47-11.47-11.47s-11.47,5.15-11.47,11.47v16.54Z"/></g><g><path class="cls-1" d="M85.13,55.27c-4.73,0-8.57-3.85-8.57-8.57s3.85-8.57,8.57-8.57,8.57,3.85,8.57,8.57-3.85,8.57-8.57,8.57Zm0-15.15c-3.62,0-6.57,2.95-6.57,6.57s2.95,6.57,6.57,6.57,6.57-2.95,6.57-6.57-2.95-6.57-6.57-6.57Z"/><path class="cls-1" d="M98.61,91.4h-26.94v-18.54c0-7.43,6.04-13.47,13.47-13.47s13.47,6.04,13.47,13.47v18.54Zm-24.94-2h22.94v-16.54c0-6.33-5.15-11.47-11.47-11.47s-11.47,5.15-11.47,11.47v16.54Z"/></g><g><path class="cls-2" d="M73.42,28.18c-2.97-2.35-6.32-4.15-9.96-5.34-5.77-1.89-11.93-2.12-17.8-.65l-.48-1.94c6.24-1.56,12.77-1.32,18.91,.69,3.86,1.27,7.42,3.18,10.58,5.68l-1.24,1.57Z"/><polygon class="cls-2" points="69.65 30.01 78.97 32.21 76.22 23.04 69.65 30.01"/></g><g><path class="cls-2" d="M56.43,90.31c-3.77,0-7.54-.63-11.16-1.88-3.46-1.19-6.67-2.91-9.55-5.1l1.21-1.59c2.71,2.06,5.74,3.68,9,4.8,5.75,1.98,11.9,2.3,17.79,.93l.46,1.95c-2.55,.6-5.14,.89-7.74,.89Z"/><polygon class="cls-2" points="33.8 87.62 30.56 76.93 41.43 79.47 33.8 87.62"/></g></svg>